<svg width="351" height="673" viewBox="0 0 351 673" fill="none" xmlns="http://www.w3.org/2000/svg">
<g filter="url(#filter0_d_752_7620)">
<path fill-rule="evenodd" clip-rule="evenodd" d="M316.561 230.211L281.031 166.345L209.284 295.291C179.234 287.102 147.622 286.632 117.343 293.924L246.723 61.3648L212.59 0L4 374.971V497.71L55.6539 404.836C82.8874 364.295 130.728 343.044 178.785 350.138L4.05979 664.146L157.399 664.127C239.657 665.555 313.112 612.443 338.096 533.454C363.08 454.465 333.674 368.315 265.758 321.541L316.561 230.211ZM160.468 603.901H108.67L236.409 374.263C280.005 407.221 297.792 464.579 280.564 516.673C263.336 568.767 214.96 603.901 160.468 603.901Z" fill="#191919"/>
</g>
<defs>
<filter id="filter0_d_752_7620" x="0" y="0" width="350.906" height="672.156" filterUnits="userSpaceOnUse" color-interpolation-filters="sRGB">
<feFlood flood-opacity="0" result="BackgroundImageFix"/>
<feColorMatrix in="SourceAlpha" type="matrix" values="0 0 0 0 0 0 0 0 0 0 0 0 0 0 0 0 0 0 127 0" result="hardAlpha"/>
<feOffset dy="4"/>
<feGaussianBlur stdDeviation="2"/>
<feComposite in2="hardAlpha" operator="out"/>
<feColorMatrix type="matrix" values="0 0 0 0 0 0 0 0 0 0 0 0 0 0 0 0 0 0 0.25 0"/>
<feBlend mode="normal" in2="BackgroundImageFix" result="effect1_dropShadow_752_7620"/>
<feBlend mode="normal" in="SourceGraphic" in2="effect1_dropShadow_752_7620" result="shape"/>
</filter>
</defs>
</svg>
